<?xml version="1.0" encoding="utf-8" standalone="no"?>
<!DOCTYPE svg PUBLIC "-//W3C//DTD SVG 1.1//EN"
  "http://www.w3.org/Graphics/SVG/1.1/DTD/svg11.dtd">
<svg xmlns:xlink="http://www.w3.org/1999/xlink" width="360pt" height="432pt" viewBox="0 0 360 432" xmlns="http://www.w3.org/2000/svg" version="1.1">
 <metadata>
  <rdf:RDF xmlns:dc="http://purl.org/dc/elements/1.1/" xmlns:cc="http://creativecommons.org/ns#" xmlns:rdf="http://www.w3.org/1999/02/22-rdf-syntax-ns#">
   <cc:Work>
    <dc:type rdf:resource="http://purl.org/dc/dcmitype/StillImage"/>
    <dc:date>2025-07-16T12:08:42.023344</dc:date>
    <dc:format>image/svg+xml</dc:format>
    <dc:creator>
     <cc:Agent>
      <dc:title>Matplotlib v3.10.1, https://matplotlib.org/</dc:title>
     </cc:Agent>
    </dc:creator>
   </cc:Work>
  </rdf:RDF>
 </metadata>
 <defs>
  <style type="text/css">*{stroke-linejoin: round; stroke-linecap: butt}</style>
 </defs>
 <g id="figure_1">
  <g id="patch_1">
   <path d="M 0 432 
L 360 432 
L 360 0 
L 0 0 
z
" style="fill: #ffffff"/>
  </g>
  <g id="axes_1">
   <g id="patch_2">
    <path d="M 61.46 385.3 
L 190.834419 385.3 
L 190.834419 28.0464 
L 61.46 28.0464 
z
" style="fill: #ffffff"/>
   </g>
   <g id="FillBetweenPolyCollection_1">
    <defs>
     <path id="m290a1a007b" d="M 183.390908 -397.016637 
L 156.237717 -397.016637 
L 162.207905 -383.142711 
L 154.68391 -372.737266 
L 63.230988 -346.723654 
L 66.548202 -294.696431 
L 121.116864 -51.902722 
L 149.050853 -51.902722 
L 149.050853 -51.902722 
L 101.93033 -294.696431 
L 143.275736 -346.723654 
L 182.357984 -372.737266 
L 184.912724 -383.142711 
L 183.390908 -397.016637 
z
" style="stroke: #e66101; stroke-opacity: 0.15"/>
    </defs>
    <g clip-path="url(#p39d72df3f3)">
     <use xlink:href="#m290a1a007b" x="0" y="432" style="fill: #e66101; fill-opacity: 0.15; stroke: #e66101; stroke-opacity: 0.15"/>
    </g>
   </g>
   <g id="FillBetweenPolyCollection_2">
    <defs>
     <path id="mc97634113a" d="M 167.423593 -397.016637 
L 126.533108 -397.016637 
L 131.038459 -383.142711 
L 144.212559 -372.737266 
L 82.666106 -346.723654 
L 98.374951 -294.696431 
L 117.299751 -51.902722 
L 176.05572 -51.902722 
L 176.05572 -51.902722 
L 151.979862 -294.696431 
L 173.223295 -346.723654 
L 169.794736 -372.737266 
L 131.038459 -383.142711 
L 167.423593 -397.016637 
z
" style="stroke: #b2abd2; stroke-opacity: 0.15"/>
    </defs>
    <g clip-path="url(#p39d72df3f3)">
     <use xlink:href="#mc97634113a" x="0" y="432" style="fill: #b2abd2; fill-opacity: 0.15; stroke: #b2abd2; stroke-opacity: 0.15"/>
    </g>
   </g>
   <g id="matplotlib.axis_1">
    <g id="xtick_1">
     <g id="line2d_1">
      <defs>
       <path id="m6f17cd12f6" d="M 0 0 
L 0 -3.5 
" style="stroke: #000000; stroke-width: 0.8"/>
      </defs>
      <g>
       <use xlink:href="#m6f17cd12f6" x="61.46" y="385.3" style="stroke: #000000; stroke-width: 0.8"/>
      </g>
     </g>
     <g id="text_1">
      <!-- 0 -->
      <g transform="translate(58.27875 396.398438) scale(0.1 -0.1)">
       <defs>
        <path id="DejaVuSans-30" d="M 2034 4250 
Q 1547 4250 1301 3770 
Q 1056 3291 1056 2328 
Q 1056 1369 1301 889 
Q 1547 409 2034 409 
Q 2525 409 2770 889 
Q 3016 1369 3016 2328 
Q 3016 3291 2770 3770 
Q 2525 4250 2034 4250 
z
M 2034 4750 
Q 2819 4750 3233 4129 
Q 3647 3509 3647 2328 
Q 3647 1150 3233 529 
Q 2819 -91 2034 -91 
Q 1250 -91 836 529 
Q 422 1150 422 2328 
Q 422 3509 836 4129 
Q 1250 4750 2034 4750 
z
" transform="scale(0.015625)"/>
       </defs>
       <use xlink:href="#DejaVuSans-30"/>
      </g>
     </g>
    </g>
    <g id="xtick_2">
     <g id="line2d_2">
      <g>
       <use xlink:href="#m6f17cd12f6" x="87.334884" y="385.3" style="stroke: #000000; stroke-width: 0.8"/>
      </g>
     </g>
     <g id="text_2">
      <!-- 20 -->
      <g transform="translate(80.972384 396.398438) scale(0.1 -0.1)">
       <defs>
        <path id="DejaVuSans-32" d="M 1228 531 
L 3431 531 
L 3431 0 
L 469 0 
L 469 531 
Q 828 903 1448 1529 
Q 2069 2156 2228 2338 
Q 2531 2678 2651 2914 
Q 2772 3150 2772 3378 
Q 2772 3750 2511 3984 
Q 2250 4219 1831 4219 
Q 1534 4219 1204 4116 
Q 875 4013 500 3803 
L 500 4441 
Q 881 4594 1212 4672 
Q 1544 4750 1819 4750 
Q 2544 4750 2975 4387 
Q 3406 4025 3406 3419 
Q 3406 3131 3298 2873 
Q 3191 2616 2906 2266 
Q 2828 2175 2409 1742 
Q 1991 1309 1228 531 
z
" transform="scale(0.015625)"/>
       </defs>
       <use xlink:href="#DejaVuSans-32"/>
       <use xlink:href="#DejaVuSans-30" transform="translate(63.623047 0)"/>
      </g>
     </g>
    </g>
    <g id="xtick_3">
     <g id="line2d_3">
      <g>
       <use xlink:href="#m6f17cd12f6" x="113.209767" y="385.3" style="stroke: #000000; stroke-width: 0.8"/>
      </g>
     </g>
     <g id="text_3">
      <!-- 40 -->
      <g transform="translate(106.847267 396.398438) scale(0.1 -0.1)">
       <defs>
        <path id="DejaVuSans-34" d="M 2419 4116 
L 825 1625 
L 2419 1625 
L 2419 4116 
z
M 2253 4666 
L 3047 4666 
L 3047 1625 
L 3713 1625 
L 3713 1100 
L 3047 1100 
L 3047 0 
L 2419 0 
L 2419 1100 
L 313 1100 
L 313 1709 
L 2253 4666 
z
" transform="scale(0.015625)"/>
       </defs>
       <use xlink:href="#DejaVuSans-34"/>
       <use xlink:href="#DejaVuSans-30" transform="translate(63.623047 0)"/>
      </g>
     </g>
    </g>
    <g id="xtick_4">
     <g id="line2d_4">
      <g>
       <use xlink:href="#m6f17cd12f6" x="139.084651" y="385.3" style="stroke: #000000; stroke-width: 0.8"/>
      </g>
     </g>
     <g id="text_4">
      <!-- 60 -->
      <g transform="translate(132.722151 396.398438) scale(0.1 -0.1)">
       <defs>
        <path id="DejaVuSans-36" d="M 2113 2584 
Q 1688 2584 1439 2293 
Q 1191 2003 1191 1497 
Q 1191 994 1439 701 
Q 1688 409 2113 409 
Q 2538 409 2786 701 
Q 3034 994 3034 1497 
Q 3034 2003 2786 2293 
Q 2538 2584 2113 2584 
z
M 3366 4563 
L 3366 3988 
Q 3128 4100 2886 4159 
Q 2644 4219 2406 4219 
Q 1781 4219 1451 3797 
Q 1122 3375 1075 2522 
Q 1259 2794 1537 2939 
Q 1816 3084 2150 3084 
Q 2853 3084 3261 2657 
Q 3669 2231 3669 1497 
Q 3669 778 3244 343 
Q 2819 -91 2113 -91 
Q 1303 -91 875 529 
Q 447 1150 447 2328 
Q 447 3434 972 4092 
Q 1497 4750 2381 4750 
Q 2619 4750 2861 4703 
Q 3103 4656 3366 4563 
z
" transform="scale(0.015625)"/>
       </defs>
       <use xlink:href="#DejaVuSans-36"/>
       <use xlink:href="#DejaVuSans-30" transform="translate(63.623047 0)"/>
      </g>
     </g>
    </g>
    <g id="xtick_5">
     <g id="line2d_5">
      <g>
       <use xlink:href="#m6f17cd12f6" x="164.959535" y="385.3" style="stroke: #000000; stroke-width: 0.8"/>
      </g>
     </g>
     <g id="text_5">
      <!-- 80 -->
      <g transform="translate(158.597035 396.398438) scale(0.1 -0.1)">
       <defs>
        <path id="DejaVuSans-38" d="M 2034 2216 
Q 1584 2216 1326 1975 
Q 1069 1734 1069 1313 
Q 1069 891 1326 650 
Q 1584 409 2034 409 
Q 2484 409 2743 651 
Q 3003 894 3003 1313 
Q 3003 1734 2745 1975 
Q 2488 2216 2034 2216 
z
M 1403 2484 
Q 997 2584 770 2862 
Q 544 3141 544 3541 
Q 544 4100 942 4425 
Q 1341 4750 2034 4750 
Q 2731 4750 3128 4425 
Q 3525 4100 3525 3541 
Q 3525 3141 3298 2862 
Q 3072 2584 2669 2484 
Q 3125 2378 3379 2068 
Q 3634 1759 3634 1313 
Q 3634 634 3220 271 
Q 2806 -91 2034 -91 
Q 1263 -91 848 271 
Q 434 634 434 1313 
Q 434 1759 690 2068 
Q 947 2378 1403 2484 
z
M 1172 3481 
Q 1172 3119 1398 2916 
Q 1625 2713 2034 2713 
Q 2441 2713 2670 2916 
Q 2900 3119 2900 3481 
Q 2900 3844 2670 4047 
Q 2441 4250 2034 4250 
Q 1625 4250 1398 4047 
Q 1172 3844 1172 3481 
z
" transform="scale(0.015625)"/>
       </defs>
       <use xlink:href="#DejaVuSans-38"/>
       <use xlink:href="#DejaVuSans-30" transform="translate(63.623047 0)"/>
      </g>
     </g>
    </g>
    <g id="xtick_6">
     <g id="line2d_6">
      <g>
       <use xlink:href="#m6f17cd12f6" x="190.834419" y="385.3" style="stroke: #000000; stroke-width: 0.8"/>
      </g>
     </g>
     <g id="text_6">
      <!-- 100 -->
      <g transform="translate(181.290669 396.398438) scale(0.1 -0.1)">
       <defs>
        <path id="DejaVuSans-31" d="M 794 531 
L 1825 531 
L 1825 4091 
L 703 3866 
L 703 4441 
L 1819 4666 
L 2450 4666 
L 2450 531 
L 3481 531 
L 3481 0 
L 794 0 
L 794 531 
z
" transform="scale(0.015625)"/>
       </defs>
       <use xlink:href="#DejaVuSans-31"/>
       <use xlink:href="#DejaVuSans-30" transform="translate(63.623047 0)"/>
       <use xlink:href="#DejaVuSans-30" transform="translate(127.246094 0)"/>
      </g>
     </g>
    </g>
    <g id="xtick_7">
     <g id="line2d_7">
      <defs>
       <path id="m2d2d4649ee" d="M 0 0 
L 0 -2 
" style="stroke: #000000; stroke-width: 0.6"/>
      </defs>
      <g>
       <use xlink:href="#m2d2d4649ee" x="74.397442" y="385.3" style="stroke: #000000; stroke-width: 0.6"/>
      </g>
     </g>
    </g>
    <g id="xtick_8">
     <g id="line2d_8">
      <g>
       <use xlink:href="#m2d2d4649ee" x="100.272326" y="385.3" style="stroke: #000000; stroke-width: 0.6"/>
      </g>
     </g>
    </g>
    <g id="xtick_9">
     <g id="line2d_9">
      <g>
       <use xlink:href="#m2d2d4649ee" x="126.147209" y="385.3" style="stroke: #000000; stroke-width: 0.6"/>
      </g>
     </g>
    </g>
    <g id="xtick_10">
     <g id="line2d_10">
      <g>
       <use xlink:href="#m2d2d4649ee" x="152.022093" y="385.3" style="stroke: #000000; stroke-width: 0.6"/>
      </g>
     </g>
    </g>
    <g id="xtick_11">
     <g id="line2d_11">
      <g>
       <use xlink:href="#m2d2d4649ee" x="177.896977" y="385.3" style="stroke: #000000; stroke-width: 0.6"/>
      </g>
     </g>
    </g>
   </g>
   <g id="matplotlib.axis_2">
    <g id="ytick_1">
     <g id="line2d_12">
      <defs>
       <path id="m0f90f08d04" d="M 0 0 
L 3.5 0 
" style="stroke: #000000"/>
      </defs>
      <g>
       <use xlink:href="#m0f90f08d04" x="61.46" y="33.249122" style="stroke: #000000"/>
      </g>
     </g>
     <g id="line2d_13">
      <defs>
       <path id="mfcb5a38386" d="M 0 0 
L -3.5 0 
" style="stroke: #000000"/>
      </defs>
      <g>
       <use xlink:href="#mfcb5a38386" x="190.834419" y="33.249122" style="stroke: #000000"/>
      </g>
     </g>
     <g id="text_7">
      <!-- 0 -->
      <g transform="translate(51.5975 37.048341) scale(0.1 -0.1)">
       <use xlink:href="#DejaVuSans-30"/>
      </g>
     </g>
    </g>
    <g id="ytick_2">
     <g id="line2d_14">
      <g>
       <use xlink:href="#m0f90f08d04" x="61.46" y="102.618753" style="stroke: #000000"/>
      </g>
     </g>
     <g id="line2d_15">
      <g>
       <use xlink:href="#mfcb5a38386" x="190.834419" y="102.618753" style="stroke: #000000"/>
      </g>
     </g>
     <g id="text_8">
      <!-- 200 -->
      <g transform="translate(38.8725 106.417972) scale(0.1 -0.1)">
       <use xlink:href="#DejaVuSans-32"/>
       <use xlink:href="#DejaVuSans-30" transform="translate(63.623047 0)"/>
       <use xlink:href="#DejaVuSans-30" transform="translate(127.246094 0)"/>
      </g>
     </g>
    </g>
    <g id="ytick_3">
     <g id="line2d_16">
      <g>
       <use xlink:href="#m0f90f08d04" x="61.46" y="171.988384" style="stroke: #000000"/>
      </g>
     </g>
     <g id="line2d_17">
      <g>
       <use xlink:href="#mfcb5a38386" x="190.834419" y="171.988384" style="stroke: #000000"/>
      </g>
     </g>
     <g id="text_9">
      <!-- 400 -->
      <g transform="translate(38.8725 175.787603) scale(0.1 -0.1)">
       <use xlink:href="#DejaVuSans-34"/>
       <use xlink:href="#DejaVuSans-30" transform="translate(63.623047 0)"/>
       <use xlink:href="#DejaVuSans-30" transform="translate(127.246094 0)"/>
      </g>
     </g>
    </g>
    <g id="ytick_4">
     <g id="line2d_18">
      <g>
       <use xlink:href="#m0f90f08d04" x="61.46" y="241.358016" style="stroke: #000000"/>
      </g>
     </g>
     <g id="line2d_19">
      <g>
       <use xlink:href="#mfcb5a38386" x="190.834419" y="241.358016" style="stroke: #000000"/>
      </g>
     </g>
     <g id="text_10">
      <!-- 600 -->
      <g transform="translate(38.8725 245.157234) scale(0.1 -0.1)">
       <use xlink:href="#DejaVuSans-36"/>
       <use xlink:href="#DejaVuSans-30" transform="translate(63.623047 0)"/>
       <use xlink:href="#DejaVuSans-30" transform="translate(127.246094 0)"/>
      </g>
     </g>
    </g>
    <g id="ytick_5">
     <g id="line2d_20">
      <g>
       <use xlink:href="#m0f90f08d04" x="61.46" y="310.727647" style="stroke: #000000"/>
      </g>
     </g>
     <g id="line2d_21">
      <g>
       <use xlink:href="#mfcb5a38386" x="190.834419" y="310.727647" style="stroke: #000000"/>
      </g>
     </g>
     <g id="text_11">
      <!-- 800 -->
      <g transform="translate(38.8725 314.526865) scale(0.1 -0.1)">
       <use xlink:href="#DejaVuSans-38"/>
       <use xlink:href="#DejaVuSans-30" transform="translate(63.623047 0)"/>
       <use xlink:href="#DejaVuSans-30" transform="translate(127.246094 0)"/>
      </g>
     </g>
    </g>
    <g id="ytick_6">
     <g id="line2d_22">
      <g>
       <use xlink:href="#m0f90f08d04" x="61.46" y="380.097278" style="stroke: #000000"/>
      </g>
     </g>
     <g id="line2d_23">
      <g>
       <use xlink:href="#mfcb5a38386" x="190.834419" y="380.097278" style="stroke: #000000"/>
      </g>
     </g>
     <g id="text_12">
      <!-- 1000 -->
      <g transform="translate(32.51 383.896496) scale(0.1 -0.1)">
       <use xlink:href="#DejaVuSans-31"/>
       <use xlink:href="#DejaVuSans-30" transform="translate(63.623047 0)"/>
       <use xlink:href="#DejaVuSans-30" transform="translate(127.246094 0)"/>
       <use xlink:href="#DejaVuSans-30" transform="translate(190.869141 0)"/>
      </g>
     </g>
    </g>
    <g id="ytick_7">
     <g id="line2d_24">
      <g>
       <use xlink:href="#m0f90f08d04" x="61.46" y="67.933938" style="stroke: #000000"/>
      </g>
     </g>
     <g id="line2d_25">
      <g>
       <use xlink:href="#mfcb5a38386" x="190.834419" y="67.933938" style="stroke: #000000"/>
      </g>
     </g>
    </g>
    <g id="ytick_8">
     <g id="line2d_26">
      <g>
       <use xlink:href="#m0f90f08d04" x="61.46" y="137.303569" style="stroke: #000000"/>
      </g>
     </g>
     <g id="line2d_27">
      <g>
       <use xlink:href="#mfcb5a38386" x="190.834419" y="137.303569" style="stroke: #000000"/>
      </g>
     </g>
    </g>
    <g id="ytick_9">
     <g id="line2d_28">
      <g>
       <use xlink:href="#m0f90f08d04" x="61.46" y="206.6732" style="stroke: #000000"/>
      </g>
     </g>
     <g id="line2d_29">
      <g>
       <use xlink:href="#mfcb5a38386" x="190.834419" y="206.6732" style="stroke: #000000"/>
      </g>
     </g>
    </g>
    <g id="ytick_10">
     <g id="line2d_30">
      <g>
       <use xlink:href="#m0f90f08d04" x="61.46" y="276.042831" style="stroke: #000000"/>
      </g>
     </g>
     <g id="line2d_31">
      <g>
       <use xlink:href="#mfcb5a38386" x="190.834419" y="276.042831" style="stroke: #000000"/>
      </g>
     </g>
    </g>
    <g id="ytick_11">
     <g id="line2d_32">
      <g>
       <use xlink:href="#m0f90f08d04" x="61.46" y="345.412462" style="stroke: #000000"/>
      </g>
     </g>
     <g id="line2d_33">
      <g>
       <use xlink:href="#mfcb5a38386" x="190.834419" y="345.412462" style="stroke: #000000"/>
      </g>
     </g>
    </g>
   </g>
   <g id="LineCollection_1">
    <path d="M 156.237717 34.983363 
L 183.390908 34.983363 
" clip-path="url(#p39d72df3f3)" style="fill: none; stroke: #e66101; stroke-width: 1.5"/>
    <path d="M 162.207905 48.857289 
L 184.912724 48.857289 
" clip-path="url(#p39d72df3f3)" style="fill: none; stroke: #e66101; stroke-width: 1.5"/>
    <path d="M 154.68391 59.262734 
L 182.357984 59.262734 
" clip-path="url(#p39d72df3f3)" style="fill: none; stroke: #e66101; stroke-width: 1.5"/>
    <path d="M 63.230988 85.276346 
L 143.275736 85.276346 
" clip-path="url(#p39d72df3f3)" style="fill: none; stroke: #e66101; stroke-width: 1.5"/>
    <path d="M 66.548202 137.303569 
L 101.93033 137.303569 
" clip-path="url(#p39d72df3f3)" style="fill: none; stroke: #e66101; stroke-width: 1.5"/>
    <path d="M 121.116864 380.097278 
L 149.050853 380.097278 
" clip-path="url(#p39d72df3f3)" style="fill: none; stroke: #e66101; stroke-width: 1.5"/>
   </g>
   <g id="LineCollection_2">
    <path d="M 126.533108 34.983363 
L 167.423593 34.983363 
" clip-path="url(#p39d72df3f3)" style="fill: none; stroke: #b2abd2; stroke-width: 1.5"/>
    <path d="M 131.038459 48.857289 
L 131.038459 48.857289 
" clip-path="url(#p39d72df3f3)" style="fill: none; stroke: #b2abd2; stroke-width: 1.5"/>
    <path d="M 144.212559 59.262734 
L 169.794736 59.262734 
" clip-path="url(#p39d72df3f3)" style="fill: none; stroke: #b2abd2; stroke-width: 1.5"/>
    <path d="M 82.666106 85.276346 
L 173.223295 85.276346 
" clip-path="url(#p39d72df3f3)" style="fill: none; stroke: #b2abd2; stroke-width: 1.5"/>
    <path d="M 98.374951 137.303569 
L 151.979862 137.303569 
" clip-path="url(#p39d72df3f3)" style="fill: none; stroke: #b2abd2; stroke-width: 1.5"/>
    <path d="M 117.299751 380.097278 
L 176.05572 380.097278 
" clip-path="url(#p39d72df3f3)" style="fill: none; stroke: #b2abd2; stroke-width: 1.5"/>
   </g>
   <g id="line2d_34">
    <path d="M 169.814312 34.983363 
L 173.560315 48.857289 
L 168.520947 59.262734 
L 103.253362 85.276346 
L 84.239266 137.303569 
L 135.083859 380.097278 
" clip-path="url(#p39d72df3f3)" style="fill: none; stroke: #e66101; stroke-width: 2.5; stroke-linecap: square"/>
    <defs>
     <path id="m9664d2ed22" d="M 0 3 
C 0.795609 3 1.55874 2.683901 2.12132 2.12132 
C 2.683901 1.55874 3 0.795609 3 0 
C 3 -0.795609 2.683901 -1.55874 2.12132 -2.12132 
C 1.55874 -2.683901 0.795609 -3 0 -3 
C -0.795609 -3 -1.55874 -2.683901 -2.12132 -2.12132 
C -2.683901 -1.55874 -3 -0.795609 -3 0 
C -3 0.795609 -2.683901 1.55874 -2.12132 2.12132 
C -1.55874 2.683901 -0.795609 3 0 3 
z
" style="stroke: #e66101"/>
    </defs>
    <g clip-path="url(#p39d72df3f3)">
     <use xlink:href="#m9664d2ed22" x="169.814312" y="34.983363" style="fill: #e66101; stroke: #e66101"/>
     <use xlink:href="#m9664d2ed22" x="173.560315" y="48.857289" style="fill: #e66101; stroke: #e66101"/>
     <use xlink:href="#m9664d2ed22" x="168.520947" y="59.262734" style="fill: #e66101; stroke: #e66101"/>
     <use xlink:href="#m9664d2ed22" x="103.253362" y="85.276346" style="fill: #e66101; stroke: #e66101"/>
     <use xlink:href="#m9664d2ed22" x="84.239266" y="137.303569" style="fill: #e66101; stroke: #e66101"/>
     <use xlink:href="#m9664d2ed22" x="135.083859" y="380.097278" style="fill: #e66101; stroke: #e66101"/>
    </g>
   </g>
   <g id="line2d_35">
    <path d="M 146.978351 34.983363 
L 131.038459 48.857289 
L 157.003648 59.262734 
L 127.9447 85.276346 
L 125.177407 137.303569 
L 146.677735 380.097278 
" clip-path="url(#p39d72df3f3)" style="fill: none; stroke: #b2abd2; stroke-width: 2.5; stroke-linecap: square"/>
    <defs>
     <path id="ma3cf26e895" d="M 0 3 
C 0.795609 3 1.55874 2.683901 2.12132 2.12132 
C 2.683901 1.55874 3 0.795609 3 0 
C 3 -0.795609 2.683901 -1.55874 2.12132 -2.12132 
C 1.55874 -2.683901 0.795609 -3 0 -3 
C -0.795609 -3 -1.55874 -2.683901 -2.12132 -2.12132 
C -2.683901 -1.55874 -3 -0.795609 -3 0 
C -3 0.795609 -2.683901 1.55874 -2.12132 2.12132 
C -1.55874 2.683901 -0.795609 3 0 3 
z
" style="stroke: #b2abd2"/>
    </defs>
    <g clip-path="url(#p39d72df3f3)">
     <use xlink:href="#ma3cf26e895" x="146.978351" y="34.983363" style="fill: #b2abd2; stroke: #b2abd2"/>
     <use xlink:href="#ma3cf26e895" x="131.038459" y="48.857289" style="fill: #b2abd2; stroke: #b2abd2"/>
     <use xlink:href="#ma3cf26e895" x="157.003648" y="59.262734" style="fill: #b2abd2; stroke: #b2abd2"/>
     <use xlink:href="#ma3cf26e895" x="127.9447" y="85.276346" style="fill: #b2abd2; stroke: #b2abd2"/>
     <use xlink:href="#ma3cf26e895" x="125.177407" y="137.303569" style="fill: #b2abd2; stroke: #b2abd2"/>
     <use xlink:href="#ma3cf26e895" x="146.677735" y="380.097278" style="fill: #b2abd2; stroke: #b2abd2"/>
    </g>
   </g>
   <g id="patch_3">
    <path d="M 61.46 385.3 
L 61.46 28.0464 
" style="fill: none; stroke: #000000; stroke-width: 0.8; stroke-linejoin: miter; stroke-linecap: square"/>
   </g>
   <g id="patch_4">
    <path d="M 190.834419 385.3 
L 190.834419 28.0464 
" style="fill: none; stroke: #000000; stroke-width: 0.8; stroke-linejoin: miter; stroke-linecap: square"/>
   </g>
   <g id="patch_5">
    <path d="M 61.46 385.3 
L 190.834419 385.3 
" style="fill: none; stroke: #000000; stroke-width: 0.8; stroke-linejoin: miter; stroke-linecap: square"/>
   </g>
   <g id="patch_6">
    <path d="M 61.46 28.0464 
L 190.834419 28.0464 
" style="fill: none; stroke: #000000; stroke-width: 0.8; stroke-linejoin: miter; stroke-linecap: square"/>
   </g>
   <g id="text_13">
    <g id="patch_7">
     <path d="M 57.846428 24.553552 
L 194.447991 24.553552 
L 194.447991 6.875427 
L 57.846428 6.875427 
z
" style="fill: #bbede8; stroke: #bbede8; stroke-linejoin: miter"/>
    </g>
    <!-- High light-adapted clades -->
    <g transform="translate(61.846428 18.473864) scale(0.1 -0.1)">
     <defs>
      <path id="DejaVuSans-48" d="M 628 4666 
L 1259 4666 
L 1259 2753 
L 3553 2753 
L 3553 4666 
L 4184 4666 
L 4184 0 
L 3553 0 
L 3553 2222 
L 1259 2222 
L 1259 0 
L 628 0 
L 628 4666 
z
" transform="scale(0.015625)"/>
      <path id="DejaVuSans-69" d="M 603 3500 
L 1178 3500 
L 1178 0 
L 603 0 
L 603 3500 
z
M 603 4863 
L 1178 4863 
L 1178 4134 
L 603 4134 
L 603 4863 
z
" transform="scale(0.015625)"/>
      <path id="DejaVuSans-67" d="M 2906 1791 
Q 2906 2416 2648 2759 
Q 2391 3103 1925 3103 
Q 1463 3103 1205 2759 
Q 947 2416 947 1791 
Q 947 1169 1205 825 
Q 1463 481 1925 481 
Q 2391 481 2648 825 
Q 2906 1169 2906 1791 
z
M 3481 434 
Q 3481 -459 3084 -895 
Q 2688 -1331 1869 -1331 
Q 1566 -1331 1297 -1286 
Q 1028 -1241 775 -1147 
L 775 -588 
Q 1028 -725 1275 -790 
Q 1522 -856 1778 -856 
Q 2344 -856 2625 -561 
Q 2906 -266 2906 331 
L 2906 616 
Q 2728 306 2450 153 
Q 2172 0 1784 0 
Q 1141 0 747 490 
Q 353 981 353 1791 
Q 353 2603 747 3093 
Q 1141 3584 1784 3584 
Q 2172 3584 2450 3431 
Q 2728 3278 2906 2969 
L 2906 3500 
L 3481 3500 
L 3481 434 
z
" transform="scale(0.015625)"/>
      <path id="DejaVuSans-68" d="M 3513 2113 
L 3513 0 
L 2938 0 
L 2938 2094 
Q 2938 2591 2744 2837 
Q 2550 3084 2163 3084 
Q 1697 3084 1428 2787 
Q 1159 2491 1159 1978 
L 1159 0 
L 581 0 
L 581 4863 
L 1159 4863 
L 1159 2956 
Q 1366 3272 1645 3428 
Q 1925 3584 2291 3584 
Q 2894 3584 3203 3211 
Q 3513 2838 3513 2113 
z
" transform="scale(0.015625)"/>
      <path id="DejaVuSans-20" transform="scale(0.015625)"/>
      <path id="DejaVuSans-6c" d="M 603 4863 
L 1178 4863 
L 1178 0 
L 603 0 
L 603 4863 
z
" transform="scale(0.015625)"/>
      <path id="DejaVuSans-74" d="M 1172 4494 
L 1172 3500 
L 2356 3500 
L 2356 3053 
L 1172 3053 
L 1172 1153 
Q 1172 725 1289 603 
Q 1406 481 1766 481 
L 2356 481 
L 2356 0 
L 1766 0 
Q 1100 0 847 248 
Q 594 497 594 1153 
L 594 3053 
L 172 3053 
L 172 3500 
L 594 3500 
L 594 4494 
L 1172 4494 
z
" transform="scale(0.015625)"/>
      <path id="DejaVuSans-2d" d="M 313 2009 
L 1997 2009 
L 1997 1497 
L 313 1497 
L 313 2009 
z
" transform="scale(0.015625)"/>
      <path id="DejaVuSans-61" d="M 2194 1759 
Q 1497 1759 1228 1600 
Q 959 1441 959 1056 
Q 959 750 1161 570 
Q 1363 391 1709 391 
Q 2188 391 2477 730 
Q 2766 1069 2766 1631 
L 2766 1759 
L 2194 1759 
z
M 3341 1997 
L 3341 0 
L 2766 0 
L 2766 531 
Q 2569 213 2275 61 
Q 1981 -91 1556 -91 
Q 1019 -91 701 211 
Q 384 513 384 1019 
Q 384 1609 779 1909 
Q 1175 2209 1959 2209 
L 2766 2209 
L 2766 2266 
Q 2766 2663 2505 2880 
Q 2244 3097 1772 3097 
Q 1472 3097 1187 3025 
Q 903 2953 641 2809 
L 641 3341 
Q 956 3463 1253 3523 
Q 1550 3584 1831 3584 
Q 2591 3584 2966 3190 
Q 3341 2797 3341 1997 
z
" transform="scale(0.015625)"/>
      <path id="DejaVuSans-64" d="M 2906 2969 
L 2906 4863 
L 3481 4863 
L 3481 0 
L 2906 0 
L 2906 525 
Q 2725 213 2448 61 
Q 2172 -91 1784 -91 
Q 1150 -91 751 415 
Q 353 922 353 1747 
Q 353 2572 751 3078 
Q 1150 3584 1784 3584 
Q 2172 3584 2448 3432 
Q 2725 3281 2906 2969 
z
M 947 1747 
Q 947 1113 1208 752 
Q 1469 391 1925 391 
Q 2381 391 2643 752 
Q 2906 1113 2906 1747 
Q 2906 2381 2643 2742 
Q 2381 3103 1925 3103 
Q 1469 3103 1208 2742 
Q 947 2381 947 1747 
z
" transform="scale(0.015625)"/>
      <path id="DejaVuSans-70" d="M 1159 525 
L 1159 -1331 
L 581 -1331 
L 581 3500 
L 1159 3500 
L 1159 2969 
Q 1341 3281 1617 3432 
Q 1894 3584 2278 3584 
Q 2916 3584 3314 3078 
Q 3713 2572 3713 1747 
Q 3713 922 3314 415 
Q 2916 -91 2278 -91 
Q 1894 -91 1617 61 
Q 1341 213 1159 525 
z
M 3116 1747 
Q 3116 2381 2855 2742 
Q 2594 3103 2138 3103 
Q 1681 3103 1420 2742 
Q 1159 2381 1159 1747 
Q 1159 1113 1420 752 
Q 1681 391 2138 391 
Q 2594 391 2855 752 
Q 3116 1113 3116 1747 
z
" transform="scale(0.015625)"/>
      <path id="DejaVuSans-65" d="M 3597 1894 
L 3597 1613 
L 953 1613 
Q 991 1019 1311 708 
Q 1631 397 2203 397 
Q 2534 397 2845 478 
Q 3156 559 3463 722 
L 3463 178 
Q 3153 47 2828 -22 
Q 2503 -91 2169 -91 
Q 1331 -91 842 396 
Q 353 884 353 1716 
Q 353 2575 817 3079 
Q 1281 3584 2069 3584 
Q 2775 3584 3186 3129 
Q 3597 2675 3597 1894 
z
M 3022 2063 
Q 3016 2534 2758 2815 
Q 2500 3097 2075 3097 
Q 1594 3097 1305 2825 
Q 1016 2553 972 2059 
L 3022 2063 
z
" transform="scale(0.015625)"/>
      <path id="DejaVuSans-63" d="M 3122 3366 
L 3122 2828 
Q 2878 2963 2633 3030 
Q 2388 3097 2138 3097 
Q 1578 3097 1268 2742 
Q 959 2388 959 1747 
Q 959 1106 1268 751 
Q 1578 397 2138 397 
Q 2388 397 2633 464 
Q 2878 531 3122 666 
L 3122 134 
Q 2881 22 2623 -34 
Q 2366 -91 2075 -91 
Q 1284 -91 818 406 
Q 353 903 353 1747 
Q 353 2603 823 3093 
Q 1294 3584 2113 3584 
Q 2378 3584 2631 3529 
Q 2884 3475 3122 3366 
z
" transform="scale(0.015625)"/>
      <path id="DejaVuSans-73" d="M 2834 3397 
L 2834 2853 
Q 2591 2978 2328 3040 
Q 2066 3103 1784 3103 
Q 1356 3103 1142 2972 
Q 928 2841 928 2578 
Q 928 2378 1081 2264 
Q 1234 2150 1697 2047 
L 1894 2003 
Q 2506 1872 2764 1633 
Q 3022 1394 3022 966 
Q 3022 478 2636 193 
Q 2250 -91 1575 -91 
Q 1294 -91 989 -36 
Q 684 19 347 128 
L 347 722 
Q 666 556 975 473 
Q 1284 391 1588 391 
Q 1994 391 2212 530 
Q 2431 669 2431 922 
Q 2431 1156 2273 1281 
Q 2116 1406 1581 1522 
L 1381 1569 
Q 847 1681 609 1914 
Q 372 2147 372 2553 
Q 372 3047 722 3315 
Q 1072 3584 1716 3584 
Q 2034 3584 2315 3537 
Q 2597 3491 2834 3397 
z
" transform="scale(0.015625)"/>
     </defs>
     <use xlink:href="#DejaVuSans-48"/>
     <use xlink:href="#DejaVuSans-69" transform="translate(75.195312 0)"/>
     <use xlink:href="#DejaVuSans-67" transform="translate(102.978516 0)"/>
     <use xlink:href="#DejaVuSans-68" transform="translate(166.455078 0)"/>
     <use xlink:href="#DejaVuSans-20" transform="translate(229.833984 0)"/>
     <use xlink:href="#DejaVuSans-6c" transform="translate(261.621094 0)"/>
     <use xlink:href="#DejaVuSans-69" transform="translate(289.404297 0)"/>
     <use xlink:href="#DejaVuSans-67" transform="translate(317.1875 0)"/>
     <use xlink:href="#DejaVuSans-68" transform="translate(380.664062 0)"/>
     <use xlink:href="#DejaVuSans-74" transform="translate(444.042969 0)"/>
     <use xlink:href="#DejaVuSans-2d" transform="translate(483.251953 0)"/>
     <use xlink:href="#DejaVuSans-61" transform="translate(519.335938 0)"/>
     <use xlink:href="#DejaVuSans-64" transform="translate(580.615234 0)"/>
     <use xlink:href="#DejaVuSans-61" transform="translate(644.091797 0)"/>
     <use xlink:href="#DejaVuSans-70" transform="translate(705.371094 0)"/>
     <use xlink:href="#DejaVuSans-74" transform="translate(768.847656 0)"/>
     <use xlink:href="#DejaVuSans-65" transform="translate(808.056641 0)"/>
     <use xlink:href="#DejaVuSans-64" transform="translate(869.580078 0)"/>
     <use xlink:href="#DejaVuSans-20" transform="translate(933.056641 0)"/>
     <use xlink:href="#DejaVuSans-63" transform="translate(964.84375 0)"/>
     <use xlink:href="#DejaVuSans-6c" transform="translate(1019.824219 0)"/>
     <use xlink:href="#DejaVuSans-61" transform="translate(1047.607422 0)"/>
     <use xlink:href="#DejaVuSans-64" transform="translate(1108.886719 0)"/>
     <use xlink:href="#DejaVuSans-65" transform="translate(1172.363281 0)"/>
     <use xlink:href="#DejaVuSans-73" transform="translate(1233.886719 0)"/>
    </g>
   </g>
  </g>
  <g id="axes_2">
   <g id="patch_8">
    <path d="M 210.240581 385.3 
L 339.615 385.3 
L 339.615 28.0464 
L 210.240581 28.0464 
z
" style="fill: #ffffff"/>
   </g>
   <g id="FillBetweenPolyCollection_3">
    <defs>
     <path id="m241b9bfba7" d="M 227.532483 -397.016637 
L 200.808059 -397.016637 
L 201.255911 -383.142711 
L 203.397936 -372.737266 
L 245.130751 -346.723654 
L 286.086866 -294.696431 
L 237.717539 -51.902722 
L 265.509959 -51.902722 
L 265.509959 -51.902722 
L 323.127659 -294.696431 
L 328.24764 -346.723654 
L 229.698035 -372.737266 
L 224.101769 -383.142711 
L 227.532483 -397.016637 
z
" style="stroke: #e66101; stroke-opacity: 0.15"/>
    </defs>
    <g clip-path="url(#p2e3f0d7ab0)">
     <use xlink:href="#m241b9bfba7" x="0" y="432" style="fill: #e66101; fill-opacity: 0.15; stroke: #e66101; stroke-opacity: 0.15"/>
    </g>
   </g>
   <g id="FillBetweenPolyCollection_4">
    <defs>
     <path id="m51c4b14708" d="M 244.494603 -397.016637 
L 212.352455 -397.016637 
L 239.417098 -383.142711 
L 213.281223 -372.737266 
L 209.933297 -346.723654 
L 229.157617 -294.696431 
L 203.921159 -51.902722 
L 271.772451 -51.902722 
L 271.772451 -51.902722 
L 287.250163 -294.696431 
L 303.781719 -346.723654 
L 230.499629 -372.737266 
L 239.417098 -383.142711 
L 244.494603 -397.016637 
z
" style="stroke: #b2abd2; stroke-opacity: 0.15"/>
    </defs>
    <g clip-path="url(#p2e3f0d7ab0)">
     <use xlink:href="#m51c4b14708" x="0" y="432" style="fill: #b2abd2; fill-opacity: 0.15; stroke: #b2abd2; stroke-opacity: 0.15"/>
    </g>
   </g>
   <g id="matplotlib.axis_3">
    <g id="xtick_12">
     <g id="line2d_36">
      <g>
       <use xlink:href="#m6f17cd12f6" x="210.240581" y="385.3" style="stroke: #000000; stroke-width: 0.8"/>
      </g>
     </g>
     <g id="text_14">
      <!-- 0 -->
      <g transform="translate(207.059331 396.398438) scale(0.1 -0.1)">
       <use xlink:href="#DejaVuSans-30"/>
      </g>
     </g>
    </g>
    <g id="xtick_13">
     <g id="line2d_37">
      <g>
       <use xlink:href="#m6f17cd12f6" x="236.115465" y="385.3" style="stroke: #000000; stroke-width: 0.8"/>
      </g>
     </g>
     <g id="text_15">
      <!-- 20 -->
      <g transform="translate(229.752965 396.398438) scale(0.1 -0.1)">
       <use xlink:href="#DejaVuSans-32"/>
       <use xlink:href="#DejaVuSans-30" transform="translate(63.623047 0)"/>
      </g>
     </g>
    </g>
    <g id="xtick_14">
     <g id="line2d_38">
      <g>
       <use xlink:href="#m6f17cd12f6" x="261.990349" y="385.3" style="stroke: #000000; stroke-width: 0.8"/>
      </g>
     </g>
     <g id="text_16">
      <!-- 40 -->
      <g transform="translate(255.627849 396.398438) scale(0.1 -0.1)">
       <use xlink:href="#DejaVuSans-34"/>
       <use xlink:href="#DejaVuSans-30" transform="translate(63.623047 0)"/>
      </g>
     </g>
    </g>
    <g id="xtick_15">
     <g id="line2d_39">
      <g>
       <use xlink:href="#m6f17cd12f6" x="287.865233" y="385.3" style="stroke: #000000; stroke-width: 0.8"/>
      </g>
     </g>
     <g id="text_17">
      <!-- 60 -->
      <g transform="translate(281.502733 396.398438) scale(0.1 -0.1)">
       <use xlink:href="#DejaVuSans-36"/>
       <use xlink:href="#DejaVuSans-30" transform="translate(63.623047 0)"/>
      </g>
     </g>
    </g>
    <g id="xtick_16">
     <g id="line2d_40">
      <g>
       <use xlink:href="#m6f17cd12f6" x="313.740116" y="385.3" style="stroke: #000000; stroke-width: 0.8"/>
      </g>
     </g>
     <g id="text_18">
      <!-- 80 -->
      <g transform="translate(307.377616 396.398438) scale(0.1 -0.1)">
       <use xlink:href="#DejaVuSans-38"/>
       <use xlink:href="#DejaVuSans-30" transform="translate(63.623047 0)"/>
      </g>
     </g>
    </g>
    <g id="xtick_17">
     <g id="line2d_41">
      <g>
       <use xlink:href="#m6f17cd12f6" x="339.615" y="385.3" style="stroke: #000000; stroke-width: 0.8"/>
      </g>
     </g>
     <g id="text_19">
      <!-- 100 -->
      <g transform="translate(330.07125 396.398438) scale(0.1 -0.1)">
       <use xlink:href="#DejaVuSans-31"/>
       <use xlink:href="#DejaVuSans-30" transform="translate(63.623047 0)"/>
       <use xlink:href="#DejaVuSans-30" transform="translate(127.246094 0)"/>
      </g>
     </g>
    </g>
    <g id="xtick_18">
     <g id="line2d_42">
      <g>
       <use xlink:href="#m2d2d4649ee" x="223.178023" y="385.3" style="stroke: #000000; stroke-width: 0.6"/>
      </g>
     </g>
    </g>
    <g id="xtick_19">
     <g id="line2d_43">
      <g>
       <use xlink:href="#m2d2d4649ee" x="249.052907" y="385.3" style="stroke: #000000; stroke-width: 0.6"/>
      </g>
     </g>
    </g>
    <g id="xtick_20">
     <g id="line2d_44">
      <g>
       <use xlink:href="#m2d2d4649ee" x="274.927791" y="385.3" style="stroke: #000000; stroke-width: 0.6"/>
      </g>
     </g>
    </g>
    <g id="xtick_21">
     <g id="line2d_45">
      <g>
       <use xlink:href="#m2d2d4649ee" x="300.802674" y="385.3" style="stroke: #000000; stroke-width: 0.6"/>
      </g>
     </g>
    </g>
    <g id="xtick_22">
     <g id="line2d_46">
      <g>
       <use xlink:href="#m2d2d4649ee" x="326.677558" y="385.3" style="stroke: #000000; stroke-width: 0.6"/>
      </g>
     </g>
    </g>
   </g>
   <g id="matplotlib.axis_4">
    <g id="ytick_12">
     <g id="line2d_47">
      <g>
       <use xlink:href="#m0f90f08d04" x="210.240581" y="33.249122" style="stroke: #000000"/>
      </g>
     </g>
     <g id="line2d_48">
      <g>
       <use xlink:href="#mfcb5a38386" x="339.615" y="33.249122" style="stroke: #000000"/>
      </g>
     </g>
    </g>
    <g id="ytick_13">
     <g id="line2d_49">
      <g>
       <use xlink:href="#m0f90f08d04" x="210.240581" y="102.618753" style="stroke: #000000"/>
      </g>
     </g>
     <g id="line2d_50">
      <g>
       <use xlink:href="#mfcb5a38386" x="339.615" y="102.618753" style="stroke: #000000"/>
      </g>
     </g>
    </g>
    <g id="ytick_14">
     <g id="line2d_51">
      <g>
       <use xlink:href="#m0f90f08d04" x="210.240581" y="171.988384" style="stroke: #000000"/>
      </g>
     </g>
     <g id="line2d_52">
      <g>
       <use xlink:href="#mfcb5a38386" x="339.615" y="171.988384" style="stroke: #000000"/>
      </g>
     </g>
    </g>
    <g id="ytick_15">
     <g id="line2d_53">
      <g>
       <use xlink:href="#m0f90f08d04" x="210.240581" y="241.358016" style="stroke: #000000"/>
      </g>
     </g>
     <g id="line2d_54">
      <g>
       <use xlink:href="#mfcb5a38386" x="339.615" y="241.358016" style="stroke: #000000"/>
      </g>
     </g>
    </g>
    <g id="ytick_16">
     <g id="line2d_55">
      <g>
       <use xlink:href="#m0f90f08d04" x="210.240581" y="310.727647" style="stroke: #000000"/>
      </g>
     </g>
     <g id="line2d_56">
      <g>
       <use xlink:href="#mfcb5a38386" x="339.615" y="310.727647" style="stroke: #000000"/>
      </g>
     </g>
    </g>
    <g id="ytick_17">
     <g id="line2d_57">
      <g>
       <use xlink:href="#m0f90f08d04" x="210.240581" y="380.097278" style="stroke: #000000"/>
      </g>
     </g>
     <g id="line2d_58">
      <g>
       <use xlink:href="#mfcb5a38386" x="339.615" y="380.097278" style="stroke: #000000"/>
      </g>
     </g>
    </g>
    <g id="ytick_18">
     <g id="line2d_59">
      <g>
       <use xlink:href="#m0f90f08d04" x="210.240581" y="67.933938" style="stroke: #000000"/>
      </g>
     </g>
     <g id="line2d_60">
      <g>
       <use xlink:href="#mfcb5a38386" x="339.615" y="67.933938" style="stroke: #000000"/>
      </g>
     </g>
    </g>
    <g id="ytick_19">
     <g id="line2d_61">
      <g>
       <use xlink:href="#m0f90f08d04" x="210.240581" y="137.303569" style="stroke: #000000"/>
      </g>
     </g>
     <g id="line2d_62">
      <g>
       <use xlink:href="#mfcb5a38386" x="339.615" y="137.303569" style="stroke: #000000"/>
      </g>
     </g>
    </g>
    <g id="ytick_20">
     <g id="line2d_63">
      <g>
       <use xlink:href="#m0f90f08d04" x="210.240581" y="206.6732" style="stroke: #000000"/>
      </g>
     </g>
     <g id="line2d_64">
      <g>
       <use xlink:href="#mfcb5a38386" x="339.615" y="206.6732" style="stroke: #000000"/>
      </g>
     </g>
    </g>
    <g id="ytick_21">
     <g id="line2d_65">
      <g>
       <use xlink:href="#m0f90f08d04" x="210.240581" y="276.042831" style="stroke: #000000"/>
      </g>
     </g>
     <g id="line2d_66">
      <g>
       <use xlink:href="#mfcb5a38386" x="339.615" y="276.042831" style="stroke: #000000"/>
      </g>
     </g>
    </g>
    <g id="ytick_22">
     <g id="line2d_67">
      <g>
       <use xlink:href="#m0f90f08d04" x="210.240581" y="345.412462" style="stroke: #000000"/>
      </g>
     </g>
     <g id="line2d_68">
      <g>
       <use xlink:href="#mfcb5a38386" x="339.615" y="345.412462" style="stroke: #000000"/>
      </g>
     </g>
    </g>
   </g>
   <g id="LineCollection_3">
    <path d="M 200.808059 34.983363 
L 227.532483 34.983363 
" clip-path="url(#p2e3f0d7ab0)" style="fill: none; stroke: #e66101; stroke-width: 1.5"/>
    <path d="M 201.255911 48.857289 
L 224.101769 48.857289 
" clip-path="url(#p2e3f0d7ab0)" style="fill: none; stroke: #e66101; stroke-width: 1.5"/>
    <path d="M 203.397936 59.262734 
L 229.698035 59.262734 
" clip-path="url(#p2e3f0d7ab0)" style="fill: none; stroke: #e66101; stroke-width: 1.5"/>
    <path d="M 245.130751 85.276346 
L 328.24764 85.276346 
" clip-path="url(#p2e3f0d7ab0)" style="fill: none; stroke: #e66101; stroke-width: 1.5"/>
    <path d="M 286.086866 137.303569 
L 323.127659 137.303569 
" clip-path="url(#p2e3f0d7ab0)" style="fill: none; stroke: #e66101; stroke-width: 1.5"/>
    <path d="M 237.717539 380.097278 
L 265.509959 380.097278 
" clip-path="url(#p2e3f0d7ab0)" style="fill: none; stroke: #e66101; stroke-width: 1.5"/>
   </g>
   <g id="LineCollection_4">
    <path d="M 212.352455 34.983363 
L 244.494603 34.983363 
" clip-path="url(#p2e3f0d7ab0)" style="fill: none; stroke: #b2abd2; stroke-width: 1.5"/>
    <path d="M 239.417098 48.857289 
L 239.417098 48.857289 
" clip-path="url(#p2e3f0d7ab0)" style="fill: none; stroke: #b2abd2; stroke-width: 1.5"/>
    <path d="M 213.281223 59.262734 
L 230.499629 59.262734 
" clip-path="url(#p2e3f0d7ab0)" style="fill: none; stroke: #b2abd2; stroke-width: 1.5"/>
    <path d="M 209.933297 85.276346 
L 303.781719 85.276346 
" clip-path="url(#p2e3f0d7ab0)" style="fill: none; stroke: #b2abd2; stroke-width: 1.5"/>
    <path d="M 229.157617 137.303569 
L 287.250163 137.303569 
" clip-path="url(#p2e3f0d7ab0)" style="fill: none; stroke: #b2abd2; stroke-width: 1.5"/>
    <path d="M 203.921159 380.097278 
L 271.772451 380.097278 
" clip-path="url(#p2e3f0d7ab0)" style="fill: none; stroke: #b2abd2; stroke-width: 1.5"/>
   </g>
   <g id="line2d_69">
    <path d="M 214.170271 34.983363 
L 212.67884 48.857289 
L 216.547986 59.262734 
L 286.689196 85.276346 
L 304.607262 137.303569 
L 251.613749 380.097278 
" clip-path="url(#p2e3f0d7ab0)" style="fill: none; stroke: #e66101; stroke-width: 2.5; stroke-linecap: square"/>
    <g clip-path="url(#p2e3f0d7ab0)">
     <use xlink:href="#m9664d2ed22" x="214.170271" y="34.983363" style="fill: #e66101; stroke: #e66101"/>
     <use xlink:href="#m9664d2ed22" x="212.67884" y="48.857289" style="fill: #e66101; stroke: #e66101"/>
     <use xlink:href="#m9664d2ed22" x="216.547986" y="59.262734" style="fill: #e66101; stroke: #e66101"/>
     <use xlink:href="#m9664d2ed22" x="286.689196" y="85.276346" style="fill: #e66101; stroke: #e66101"/>
     <use xlink:href="#m9664d2ed22" x="304.607262" y="137.303569" style="fill: #e66101; stroke: #e66101"/>
     <use xlink:href="#m9664d2ed22" x="251.613749" y="380.097278" style="fill: #e66101; stroke: #e66101"/>
    </g>
   </g>
   <g id="line2d_70">
    <path d="M 228.423529 34.983363 
L 239.417098 48.857289 
L 221.890426 59.262734 
L 256.857508 85.276346 
L 258.20389 137.303569 
L 237.846805 380.097278 
" clip-path="url(#p2e3f0d7ab0)" style="fill: none; stroke: #b2abd2; stroke-width: 2.5; stroke-linecap: square"/>
    <g clip-path="url(#p2e3f0d7ab0)">
     <use xlink:href="#ma3cf26e895" x="228.423529" y="34.983363" style="fill: #b2abd2; stroke: #b2abd2"/>
     <use xlink:href="#ma3cf26e895" x="239.417098" y="48.857289" style="fill: #b2abd2; stroke: #b2abd2"/>
     <use xlink:href="#ma3cf26e895" x="221.890426" y="59.262734" style="fill: #b2abd2; stroke: #b2abd2"/>
     <use xlink:href="#ma3cf26e895" x="256.857508" y="85.276346" style="fill: #b2abd2; stroke: #b2abd2"/>
     <use xlink:href="#ma3cf26e895" x="258.20389" y="137.303569" style="fill: #b2abd2; stroke: #b2abd2"/>
     <use xlink:href="#ma3cf26e895" x="237.846805" y="380.097278" style="fill: #b2abd2; stroke: #b2abd2"/>
    </g>
   </g>
   <g id="patch_9">
    <path d="M 210.240581 385.3 
L 210.240581 28.0464 
" style="fill: none; stroke: #000000; stroke-width: 0.8; stroke-linejoin: miter; stroke-linecap: square"/>
   </g>
   <g id="patch_10">
    <path d="M 339.615 385.3 
L 339.615 28.0464 
" style="fill: none; stroke: #000000; stroke-width: 0.8; stroke-linejoin: miter; stroke-linecap: square"/>
   </g>
   <g id="patch_11">
    <path d="M 210.240581 385.3 
L 339.615 385.3 
" style="fill: none; stroke: #000000; stroke-width: 0.8; stroke-linejoin: miter; stroke-linecap: square"/>
   </g>
   <g id="patch_12">
    <path d="M 210.240581 28.0464 
L 339.615 28.0464 
" style="fill: none; stroke: #000000; stroke-width: 0.8; stroke-linejoin: miter; stroke-linecap: square"/>
   </g>
   <g id="text_20">
    <g id="patch_13">
     <path d="M 208.272322 24.553552 
L 341.583259 24.553552 
L 341.583259 6.875427 
L 208.272322 6.875427 
z
" style="fill: #edebbb; stroke: #edebbb; stroke-linejoin: miter"/>
    </g>
    <!-- Low light-adapted clades -->
    <g transform="translate(212.272322 18.473864) scale(0.1 -0.1)">
     <defs>
      <path id="DejaVuSans-4c" d="M 628 4666 
L 1259 4666 
L 1259 531 
L 3531 531 
L 3531 0 
L 628 0 
L 628 4666 
z
" transform="scale(0.015625)"/>
      <path id="DejaVuSans-6f" d="M 1959 3097 
Q 1497 3097 1228 2736 
Q 959 2375 959 1747 
Q 959 1119 1226 758 
Q 1494 397 1959 397 
Q 2419 397 2687 759 
Q 2956 1122 2956 1747 
Q 2956 2369 2687 2733 
Q 2419 3097 1959 3097 
z
M 1959 3584 
Q 2709 3584 3137 3096 
Q 3566 2609 3566 1747 
Q 3566 888 3137 398 
Q 2709 -91 1959 -91 
Q 1206 -91 779 398 
Q 353 888 353 1747 
Q 353 2609 779 3096 
Q 1206 3584 1959 3584 
z
" transform="scale(0.015625)"/>
      <path id="DejaVuSans-77" d="M 269 3500 
L 844 3500 
L 1563 769 
L 2278 3500 
L 2956 3500 
L 3675 769 
L 4391 3500 
L 4966 3500 
L 4050 0 
L 3372 0 
L 2619 2869 
L 1863 0 
L 1184 0 
L 269 3500 
z
" transform="scale(0.015625)"/>
     </defs>
     <use xlink:href="#DejaVuSans-4c"/>
     <use xlink:href="#DejaVuSans-6f" transform="translate(53.962891 0)"/>
     <use xlink:href="#DejaVuSans-77" transform="translate(115.144531 0)"/>
     <use xlink:href="#DejaVuSans-20" transform="translate(196.931641 0)"/>
     <use xlink:href="#DejaVuSans-6c" transform="translate(228.71875 0)"/>
     <use xlink:href="#DejaVuSans-69" transform="translate(256.501953 0)"/>
     <use xlink:href="#DejaVuSans-67" transform="translate(284.285156 0)"/>
     <use xlink:href="#DejaVuSans-68" transform="translate(347.761719 0)"/>
     <use xlink:href="#DejaVuSans-74" transform="translate(411.140625 0)"/>
     <use xlink:href="#DejaVuSans-2d" transform="translate(450.349609 0)"/>
     <use xlink:href="#DejaVuSans-61" transform="translate(486.433594 0)"/>
     <use xlink:href="#DejaVuSans-64" transform="translate(547.712891 0)"/>
     <use xlink:href="#DejaVuSans-61" transform="translate(611.189453 0)"/>
     <use xlink:href="#DejaVuSans-70" transform="translate(672.46875 0)"/>
     <use xlink:href="#DejaVuSans-74" transform="translate(735.945312 0)"/>
     <use xlink:href="#DejaVuSans-65" transform="translate(775.154297 0)"/>
     <use xlink:href="#DejaVuSans-64" transform="translate(836.677734 0)"/>
     <use xlink:href="#DejaVuSans-20" transform="translate(900.154297 0)"/>
     <use xlink:href="#DejaVuSans-63" transform="translate(931.941406 0)"/>
     <use xlink:href="#DejaVuSans-6c" transform="translate(986.921875 0)"/>
     <use xlink:href="#DejaVuSans-61" transform="translate(1014.705078 0)"/>
     <use xlink:href="#DejaVuSans-64" transform="translate(1075.984375 0)"/>
     <use xlink:href="#DejaVuSans-65" transform="translate(1139.460938 0)"/>
     <use xlink:href="#DejaVuSans-73" transform="translate(1200.984375 0)"/>
    </g>
   </g>
  </g>
  <g id="text_21">
   <!-- Fraction of classified $Prochlorococcus$ -->
   <g transform="translate(67.38 425.184375) scale(0.12 -0.12)">
    <defs>
     <path id="DejaVuSans-46" d="M 628 4666 
L 3309 4666 
L 3309 4134 
L 1259 4134 
L 1259 2759 
L 3109 2759 
L 3109 2228 
L 1259 2228 
L 1259 0 
L 628 0 
L 628 4666 
z
" transform="scale(0.015625)"/>
     <path id="DejaVuSans-72" d="M 2631 2963 
Q 2534 3019 2420 3045 
Q 2306 3072 2169 3072 
Q 1681 3072 1420 2755 
Q 1159 2438 1159 1844 
L 1159 0 
L 581 0 
L 581 3500 
L 1159 3500 
L 1159 2956 
Q 1341 3275 1631 3429 
Q 1922 3584 2338 3584 
Q 2397 3584 2469 3576 
Q 2541 3569 2628 3553 
L 2631 2963 
z
" transform="scale(0.015625)"/>
     <path id="DejaVuSans-6e" d="M 3513 2113 
L 3513 0 
L 2938 0 
L 2938 2094 
Q 2938 2591 2744 2837 
Q 2550 3084 2163 3084 
Q 1697 3084 1428 2787 
Q 1159 2491 1159 1978 
L 1159 0 
L 581 0 
L 581 3500 
L 1159 3500 
L 1159 2956 
Q 1366 3272 1645 3428 
Q 1925 3584 2291 3584 
Q 2894 3584 3203 3211 
Q 3513 2838 3513 2113 
z
" transform="scale(0.015625)"/>
     <path id="DejaVuSans-66" d="M 2375 4863 
L 2375 4384 
L 1825 4384 
Q 1516 4384 1395 4259 
Q 1275 4134 1275 3809 
L 1275 3500 
L 2222 3500 
L 2222 3053 
L 1275 3053 
L 1275 0 
L 697 0 
L 697 3053 
L 147 3053 
L 147 3500 
L 697 3500 
L 697 3744 
Q 697 4328 969 4595 
Q 1241 4863 1831 4863 
L 2375 4863 
z
" transform="scale(0.015625)"/>
     <path id="DejaVuSans-Oblique-50" d="M 1081 4666 
L 2541 4666 
Q 3178 4666 3512 4369 
Q 3847 4072 3847 3500 
Q 3847 2731 3353 2303 
Q 2859 1875 1966 1875 
L 1172 1875 
L 806 0 
L 172 0 
L 1081 4666 
z
M 1613 4147 
L 1275 2394 
L 2069 2394 
Q 2606 2394 2893 2669 
Q 3181 2944 3181 3456 
Q 3181 3784 2986 3965 
Q 2791 4147 2438 4147 
L 1613 4147 
z
" transform="scale(0.015625)"/>
     <path id="DejaVuSans-Oblique-72" d="M 2853 2969 
Q 2766 3016 2653 3041 
Q 2541 3066 2413 3066 
Q 1953 3066 1609 2717 
Q 1266 2369 1153 1784 
L 800 0 
L 225 0 
L 909 3500 
L 1484 3500 
L 1375 2956 
Q 1603 3259 1920 3421 
Q 2238 3584 2597 3584 
Q 2691 3584 2781 3573 
Q 2872 3563 2963 3538 
L 2853 2969 
z
" transform="scale(0.015625)"/>
     <path id="DejaVuSans-Oblique-6f" d="M 1625 -91 
Q 1009 -91 651 289 
Q 294 669 294 1325 
Q 294 1706 417 2101 
Q 541 2497 738 2766 
Q 1047 3184 1428 3384 
Q 1809 3584 2291 3584 
Q 2888 3584 3255 3212 
Q 3622 2841 3622 2241 
Q 3622 1825 3500 1412 
Q 3378 1000 3181 728 
Q 2875 309 2494 109 
Q 2113 -91 1625 -91 
z
M 891 1344 
Q 891 869 1089 633 
Q 1288 397 1691 397 
Q 2269 397 2648 901 
Q 3028 1406 3028 2181 
Q 3028 2634 2825 2865 
Q 2622 3097 2228 3097 
Q 1903 3097 1650 2945 
Q 1397 2794 1197 2484 
Q 1050 2253 970 1956 
Q 891 1659 891 1344 
z
" transform="scale(0.015625)"/>
     <path id="DejaVuSans-Oblique-63" d="M 3431 3366 
L 3316 2797 
Q 3109 2947 2876 3022 
Q 2644 3097 2394 3097 
Q 2119 3097 1870 3000 
Q 1622 2903 1453 2725 
Q 1184 2453 1037 2087 
Q 891 1722 891 1331 
Q 891 859 1127 628 
Q 1363 397 1844 397 
Q 2081 397 2348 469 
Q 2616 541 2906 684 
L 2797 116 
Q 2547 13 2283 -39 
Q 2019 -91 1741 -91 
Q 1044 -91 669 257 
Q 294 606 294 1253 
Q 294 1797 489 2255 
Q 684 2713 1069 3078 
Q 1331 3328 1684 3456 
Q 2038 3584 2456 3584 
Q 2700 3584 2940 3529 
Q 3181 3475 3431 3366 
z
" transform="scale(0.015625)"/>
     <path id="DejaVuSans-Oblique-68" d="M 3566 2113 
L 3156 0 
L 2578 0 
L 2988 2091 
Q 3016 2238 3031 2350 
Q 3047 2463 3047 2528 
Q 3047 2791 2881 2937 
Q 2716 3084 2419 3084 
Q 1956 3084 1617 2771 
Q 1278 2459 1178 1941 
L 800 0 
L 225 0 
L 1172 4863 
L 1747 4863 
L 1375 2950 
Q 1594 3244 1934 3414 
Q 2275 3584 2650 3584 
Q 3113 3584 3367 3334 
Q 3622 3084 3622 2631 
Q 3622 2519 3608 2391 
Q 3594 2263 3566 2113 
z
" transform="scale(0.015625)"/>
     <path id="DejaVuSans-Oblique-6c" d="M 1172 4863 
L 1747 4863 
L 800 0 
L 225 0 
L 1172 4863 
z
" transform="scale(0.015625)"/>
     <path id="DejaVuSans-Oblique-75" d="M 428 1388 
L 838 3500 
L 1416 3500 
L 1006 1409 
Q 975 1256 961 1147 
Q 947 1038 947 966 
Q 947 700 1109 554 
Q 1272 409 1569 409 
Q 2031 409 2368 721 
Q 2706 1034 2809 1563 
L 3194 3500 
L 3769 3500 
L 3091 0 
L 2516 0 
L 2631 550 
Q 2388 244 2052 76 
Q 1716 -91 1338 -91 
Q 878 -91 622 161 
Q 366 413 366 863 
Q 366 956 381 1097 
Q 397 1238 428 1388 
z
" transform="scale(0.015625)"/>
     <path id="DejaVuSans-Oblique-73" d="M 3200 3397 
L 3091 2853 
Q 2863 2978 2609 3040 
Q 2356 3103 2088 3103 
Q 1634 3103 1373 2948 
Q 1113 2794 1113 2528 
Q 1113 2219 1719 2053 
Q 1766 2041 1788 2034 
L 1972 1978 
Q 2547 1819 2739 1644 
Q 2931 1469 2931 1166 
Q 2931 609 2489 259 
Q 2047 -91 1331 -91 
Q 1053 -91 747 -37 
Q 441 16 72 128 
L 184 722 
Q 500 559 806 475 
Q 1113 391 1394 391 
Q 1816 391 2080 572 
Q 2344 753 2344 1031 
Q 2344 1331 1650 1516 
L 1591 1531 
L 1394 1581 
Q 956 1697 753 1886 
Q 550 2075 550 2369 
Q 550 2928 970 3256 
Q 1391 3584 2113 3584 
Q 2397 3584 2667 3537 
Q 2938 3491 3200 3397 
z
" transform="scale(0.015625)"/>
    </defs>
    <use xlink:href="#DejaVuSans-46" transform="translate(0 0.015625)"/>
    <use xlink:href="#DejaVuSans-72" transform="translate(57.519531 0.015625)"/>
    <use xlink:href="#DejaVuSans-61" transform="translate(98.632812 0.015625)"/>
    <use xlink:href="#DejaVuSans-63" transform="translate(159.912109 0.015625)"/>
    <use xlink:href="#DejaVuSans-74" transform="translate(214.892578 0.015625)"/>
    <use xlink:href="#DejaVuSans-69" transform="translate(254.101562 0.015625)"/>
    <use xlink:href="#DejaVuSans-6f" transform="translate(281.884766 0.015625)"/>
    <use xlink:href="#DejaVuSans-6e" transform="translate(343.066406 0.015625)"/>
    <use xlink:href="#DejaVuSans-20" transform="translate(406.445312 0.015625)"/>
    <use xlink:href="#DejaVuSans-6f" transform="translate(438.232422 0.015625)"/>
    <use xlink:href="#DejaVuSans-66" transform="translate(499.414062 0.015625)"/>
    <use xlink:href="#DejaVuSans-20" transform="translate(534.619141 0.015625)"/>
    <use xlink:href="#DejaVuSans-63" transform="translate(566.40625 0.015625)"/>
    <use xlink:href="#DejaVuSans-6c" transform="translate(621.386719 0.015625)"/>
    <use xlink:href="#DejaVuSans-61" transform="translate(649.169922 0.015625)"/>
    <use xlink:href="#DejaVuSans-73" transform="translate(710.449219 0.015625)"/>
    <use xlink:href="#DejaVuSans-73" transform="translate(762.548828 0.015625)"/>
    <use xlink:href="#DejaVuSans-69" transform="translate(814.648438 0.015625)"/>
    <use xlink:href="#DejaVuSans-66" transform="translate(842.431641 0.015625)"/>
    <use xlink:href="#DejaVuSans-69" transform="translate(877.636719 0.015625)"/>
    <use xlink:href="#DejaVuSans-65" transform="translate(905.419922 0.015625)"/>
    <use xlink:href="#DejaVuSans-64" transform="translate(966.943359 0.015625)"/>
    <use xlink:href="#DejaVuSans-20" transform="translate(1030.419922 0.015625)"/>
    <use xlink:href="#DejaVuSans-Oblique-50" transform="translate(1062.207031 0.015625)"/>
    <use xlink:href="#DejaVuSans-Oblique-72" transform="translate(1122.509766 0.015625)"/>
    <use xlink:href="#DejaVuSans-Oblique-6f" transform="translate(1163.623047 0.015625)"/>
    <use xlink:href="#DejaVuSans-Oblique-63" transform="translate(1224.804688 0.015625)"/>
    <use xlink:href="#DejaVuSans-Oblique-68" transform="translate(1279.785156 0.015625)"/>
    <use xlink:href="#DejaVuSans-Oblique-6c" transform="translate(1343.164062 0.015625)"/>
    <use xlink:href="#DejaVuSans-Oblique-6f" transform="translate(1370.947266 0.015625)"/>
    <use xlink:href="#DejaVuSans-Oblique-72" transform="translate(1432.128906 0.015625)"/>
    <use xlink:href="#DejaVuSans-Oblique-6f" transform="translate(1473.242188 0.015625)"/>
    <use xlink:href="#DejaVuSans-Oblique-63" transform="translate(1534.423828 0.015625)"/>
    <use xlink:href="#DejaVuSans-Oblique-6f" transform="translate(1589.404297 0.015625)"/>
    <use xlink:href="#DejaVuSans-Oblique-63" transform="translate(1650.585938 0.015625)"/>
    <use xlink:href="#DejaVuSans-Oblique-63" transform="translate(1705.566406 0.015625)"/>
    <use xlink:href="#DejaVuSans-Oblique-75" transform="translate(1760.546875 0.015625)"/>
    <use xlink:href="#DejaVuSans-Oblique-73" transform="translate(1823.925781 0.015625)"/>
   </g>
  </g>
  <g id="text_22">
   <!-- Depth (m) -->
   <g transform="translate(16.318125 246.70875) rotate(-90) scale(0.12 -0.12)">
    <defs>
     <path id="DejaVuSans-44" d="M 1259 4147 
L 1259 519 
L 2022 519 
Q 2988 519 3436 956 
Q 3884 1394 3884 2338 
Q 3884 3275 3436 3711 
Q 2988 4147 2022 4147 
L 1259 4147 
z
M 628 4666 
L 1925 4666 
Q 3281 4666 3915 4102 
Q 4550 3538 4550 2338 
Q 4550 1131 3912 565 
Q 3275 0 1925 0 
L 628 0 
L 628 4666 
z
" transform="scale(0.015625)"/>
     <path id="DejaVuSans-28" d="M 1984 4856 
Q 1566 4138 1362 3434 
Q 1159 2731 1159 2009 
Q 1159 1288 1364 580 
Q 1569 -128 1984 -844 
L 1484 -844 
Q 1016 -109 783 600 
Q 550 1309 550 2009 
Q 550 2706 781 3412 
Q 1013 4119 1484 4856 
L 1984 4856 
z
" transform="scale(0.015625)"/>
     <path id="DejaVuSans-6d" d="M 3328 2828 
Q 3544 3216 3844 3400 
Q 4144 3584 4550 3584 
Q 5097 3584 5394 3201 
Q 5691 2819 5691 2113 
L 5691 0 
L 5113 0 
L 5113 2094 
Q 5113 2597 4934 2840 
Q 4756 3084 4391 3084 
Q 3944 3084 3684 2787 
Q 3425 2491 3425 1978 
L 3425 0 
L 2847 0 
L 2847 2094 
Q 2847 2600 2669 2842 
Q 2491 3084 2119 3084 
Q 1678 3084 1418 2786 
Q 1159 2488 1159 1978 
L 1159 0 
L 581 0 
L 581 3500 
L 1159 3500 
L 1159 2956 
Q 1356 3278 1631 3431 
Q 1906 3584 2284 3584 
Q 2666 3584 2933 3390 
Q 3200 3197 3328 2828 
z
" transform="scale(0.015625)"/>
     <path id="DejaVuSans-29" d="M 513 4856 
L 1013 4856 
Q 1481 4119 1714 3412 
Q 1947 2706 1947 2009 
Q 1947 1309 1714 600 
Q 1481 -109 1013 -844 
L 513 -844 
Q 928 -128 1133 580 
Q 1338 1288 1338 2009 
Q 1338 2731 1133 3434 
Q 928 4138 513 4856 
z
" transform="scale(0.015625)"/>
    </defs>
    <use xlink:href="#DejaVuSans-44"/>
    <use xlink:href="#DejaVuSans-65" transform="translate(77.001953 0)"/>
    <use xlink:href="#DejaVuSans-70" transform="translate(138.525391 0)"/>
    <use xlink:href="#DejaVuSans-74" transform="translate(202.001953 0)"/>
    <use xlink:href="#DejaVuSans-68" transform="translate(241.210938 0)"/>
    <use xlink:href="#DejaVuSans-20" transform="translate(304.589844 0)"/>
    <use xlink:href="#DejaVuSans-28" transform="translate(336.376953 0)"/>
    <use xlink:href="#DejaVuSans-6d" transform="translate(375.390625 0)"/>
    <use xlink:href="#DejaVuSans-29" transform="translate(472.802734 0)"/>
   </g>
  </g>
 </g>
 <defs>
  <clipPath id="p39d72df3f3">
   <rect x="61.46" y="28.0464" width="129.374419" height="357.2536"/>
  </clipPath>
  <clipPath id="p2e3f0d7ab0">
   <rect x="210.240581" y="28.0464" width="129.374419" height="357.2536"/>
  </clipPath>
 </defs>
</svg>
